# AST/ASF file generated using VICON BodyLanguage
# -----------------------------------------------
:version 1.10
:name VICON
:units
  mass 1.0
  length 0.45
  angle deg
:documentation
   .ast/.asf automatically generated from VICON data using
   VICON BodyBuilder and BodyLanguage model FoxedUp or BRILLIANT.MOD
:root
   order TX TY TZ RX RY RZ
   axis XYZ
   position 0 0 0  
   orientation 0 0 0 
:bonedata
  begin
     id 1 
     name lhipjoint
     direction 0.692814 -0.645514 0.321437 
     length 2.38754 
     axis 0 0 0  XYZ
  end
  begin
     id 2 
     name lfemur
     direction 0.34202 -0.939693 0  
     length 6.41921  
     axis 0 0 20  XYZ
    dof rx ry rz
    limits (-160.0 20.0)
           (-70.0 70.0)
           (-60.0 70.0)
  end
  begin
     id 3 
     name ltibia
     direction 0.34202 -0.939693 0   
     length 6.98247   
     axis 0 0 20   XYZ
    dof rx
    limits (-10.0 170.0)
  end
  begin
     id 4 
     name lfoot
     direction 0.0947186 -0.260237 0.960888   
     length 1.83034   
     axis -90 7.62852e-016 20   XYZ
    dof rx rz
    limits (-45.0 90.0)
           (-70.0 20.0)
  end
  begin
     id 5 
     name ltoes
     direction 1.53538e-011 -4.21952e-011 1   
     length 0.920499   
     axis -90 7.62852e-016 20   XYZ
    dof rx
    limits (-90.0 20.0)
  end
  begin
     id 6 
     name rhipjoint
     direction -0.631686 -0.693949 0.345555   
     length 2.2209  
     axis 0 0 0  XYZ 
  end
  begin
     id 7 
     name rfemur
     direction -0.34202 -0.939693 0   
     length 6.49542   
     axis 0 0 -20   XYZ
    dof rx ry rz
    limits (-160.0 20.0)
           (-70.0 70.0)
           (-70.0 60.0)
  end
  begin
     id 8 
     name rtibia
     direction -0.34202 -0.939693 0   
     length 7.21712   
     axis 0 0 -20   XYZ
    dof rx
    limits (-10.0 170.0)
 end
 begin
     id 9 
     name rfoot
     direction -0.0825378 -0.226771 0.970444   
     length 1.89724  
     axis -90 -7.62852e-016 -20   XYZ
    dof rx rz
    limits (-45.0 90.0)
           (-20.0 70.0)
  end
  begin
     id 10 
     name rtoes
     direction -1.53515e-011 -4.22016e-011 1   
     length 0.955868   
     axis -90 -7.62852e-016 -20   XYZ
    dof rx
    limits (-90.0 20.0)
  end
  begin
     id 11 
     name lowerback
     direction -0.0104711 0.984802 -0.173368   
     length 1.84931   
     axis 0 0 0   XYZ
    dof rx ry rz
    limits (-20.0 45.0)
           (-30.0 30.0)
           (-30.0 30.0)
  end
  begin
     id 12 
     name upperback
     direction -0.00286433 0.999996 -0.000382853   
     length 1.85768   
     axis 0 0 0   XYZ
    dof rx ry rz
    limits (-20.0 45.0)
           (-30.0 30.0)
           (-30.0 30.0)
  end
  begin
     id 13 
     name thorax
     direction 0.00167534 0.996793 0.0800069   
     length 1.92   
     axis 0 0 0   XYZ
    dof rx ry rz
    limits (-20.0 45.0)
           (-30.0 30.0)
           (-30.0 30.0)
  end
  begin
     id 14 
     name lowerneck
     direction -0.0672491 0.995415 0.068018   
     length 1.58923   
     axis 0 0 0   XYZ
    dof rx ry rz
    limits (-20.0 45.0)
           (-30.0 30.0)
           (-30.0 30.0)
  end
  begin
     id 15 
     name upperneck
     direction 0.0958019 0.982476 -0.159884   
     length 1.60189   
     axis 0 0 0   XYZ
    dof rx ry rz
    limits (-20.0 45.0)
           (-30.0 30.0)
           (-30.0 30.0)
  end
  begin
     id 16
     name head
     direction 0.032989 0.997338 -0.0650226  
     length 1.61681  
     axis 0 0 0   XYZ
    dof rx ry rz
    limits (-20.0 45.0)
           (-30.0 30.0)
           (-30.0 30.0)
  end
  begin
     id 17 
     name lclavicle
     direction 0.954279 0.298875 -0.00496069  
     length 2.99449  
     axis 0 0 0   XYZ
    dof ry rz
    limits (-20.0 10.0)
           (0.0 20.0)
  end
  begin
     id 18 
     name lhumerus
     direction 1 -4.48985e-011 -4.2057e-027   
     length 4.79185   
     axis 180 -30 -90   XYZ
    dof rx ry rz
    limits (-60.0 90.0)
           (-90.0 90.0)
           (-90.0 90.0)
  end
  begin
     id 19
     name lradius
     direction 1 -4.48945e-011 1.15441e-028   
     length 2.65553   
     axis 180 -30 -90   XYZ
    dof rx
    limits (-10.0 170.0)
  end
  begin
     id 20
     name lwrist
     direction 1 -4.4899e-011 4.8894e-028   
     length 1.32777   
     axis -2.56392e-016 90 90   XYZ
    dof ry
    limits (-180.0 0.0)
 end
  begin
     id 21 
     name lhand
     direction 1 -4.48908e-011 9.7788e-028   
     length 0.743904   
     axis -6.23971e-016 90 90   XYZ
    dof rx rz
    limits (-90.0 90.0)
           (-45.0 45.0)
  end
  begin
     id 22 
     name lfingers
     direction 1 -4.49068e-011 1.95576e-027   
     length 0.599754   
     axis -1.24794e-015 90 90   XYZ
    dof rx
    limits (0.0 90.0)
  end
  begin
     id 23
     name lthumb
     direction 0.707107 -6.34883e-011 0.707107   
     length 0.861131   
     axis -90 45 2.85299e-015   XYZ
    dof rx rz
    limits (-45.0 45.0)
           (-45.0 45.0)
  end
  begin
     id 24 
     name rclavicle
     direction -0.957921 0.286916 0.00811568   
     length 3.06817  
     axis 0 0 0   XYZ 
    dof ry rz
    limits (-10.0 20.0)
           (-20.0 0.0)
  end
  begin
     id 25 
     name rhumerus
     direction -1 -4.48971e-011 -3.07942e-027  
     length 4.77254   
     axis 180 30 90   XYZ
    dof rx ry rz
    limits (-90.0 60.0)
           (-90.0 90.0)
           (-90.0 90.0)
  end
  begin
     id 26 
     name rradius
     direction -1 -4.48957e-011 -9.6815e-028   
     length 2.75995   
     axis 180 30 90   XYZ
    dof rx
    limits (-10.0 170.0)
  end
  begin
     id 27 
     name rwrist
     direction -1 -4.48979e-011 4.8894e-028   
     length 1.37997   
     axis -2.56392e-016 -90 -90   XYZ
    dof ry
    limits (-180.0 0.0)
  end
  begin
     id 28
     name rhand
     direction -1 -4.48906e-011 9.7788e-028   
     length 0.701619   
     axis -6.23971e-016 -90 -90   XYZ
    dof rx rz
    limits (-90.0 90.0)
           (-45.0 45.0)
  end
  begin
     id 29
     name rfingers
     direction -1 -4.49018e-011 1.95576e-027   
     length 0.565663   
     axis -1.24794e-015 -90 -90   XYZ
    dof rx
    limits (0.0 90.0)
  end
  begin
     id 30
     name rthumb
     direction -0.707107 -6.34881e-011 0.707107   
     length 0.812183   
     axis -90 -45 -2.85299e-015   XYZ
    dof rx rz
    limits (-45.0 45.0)
           (-45.0 45.0)
  end
:hierarchy
  begin
    root lhipjoint rhipjoint lowerback
    lhipjoint lfemur
    lfemur ltibia
    ltibia lfoot
    lfoot ltoes
    rhipjoint rfemur
    rfemur rtibia
    rtibia rfoot
    rfoot rtoes
    lowerback upperback
    upperback thorax
    thorax lowerneck lclavicle rclavicle
    lowerneck upperneck
    upperneck head
    lclavicle lhumerus
    lhumerus lradius
    lradius lwrist
    lwrist lhand lthumb
    lhand lfingers
    rclavicle rhumerus
    rhumerus rradius
    rradius rwrist
    rwrist rhand rthumb
    rhand rfingers
  end

#!OML:ASF F:\VICON\USERDATA\INSTALL\rory3\rory3.ASF
:FULLY-SPECIFIED
:DEGREES
1068
root -0.167584 14.9534 -0.829499 -4.61547 0.171218 1.59798
lowerback 15.866 2.40116 -8.98145
upperback 7.95589 1.64321 -13.3561
thorax -0.0945006 0.870748 -9.74535
lowerneck -5.05113 13.322 -1.64041
upperneck 27.6216 17.3444 6.92726
head 8.65844 8.55106 3.98633
rclavicle 2.06736e-014 -1.59028e-014
rhumerus 37.2913 -42.5715 -1.61922
rradius 125.532
rwrist -55.1915
rhand -14.4652 9.78087
rfingers 7.12502
rthumb 11.6805 -19.8735
lclavicle 2.06736e-014 -1.59028e-014
lhumerus -23.7715 10.8241 57.1626
lradius 19.361
lwrist 17.5664
lhand -13.3919 11.6744
lfingers 7.12502
lthumb 12.7154 41.2673
rfemur -18.5182 3.74679 16.1276
rtibia 52.9087
rfoot -24.0836 -6.96458
rtoes -17.1229
lfemur -15.5919 4.50975 -14.9056
ltibia 46.444
lfoot -18.0923 -10.9904
ltoes -5.92981
1069
root -0.171399 14.9537 -0.830655 -4.65076 0.0314862 1.65494
lowerback 15.8603 2.39928 -8.99858
upperback 8.0148 1.64762 -13.3466
thorax -0.0268213 0.871485 -9.72417
lowerneck -5.03979 13.3151 -1.63691
upperneck 27.758 17.3287 6.94971
head 8.70257 8.54149 4.00024
rclavicle 1.74931e-014 -6.99722e-014
rhumerus 38.2042 -42.4321 -1.86081
rradius 125.218
rwrist -55.5486
rhand -14.7977 9.75954
rfingers 7.12502
rthumb 11.3599 -19.9128
lclavicle 1.74931e-014 -6.99722e-014
lhumerus -23.5457 10.6726 57.3364
lradius 19.1188
lwrist 16.9459
lhand -13.6535 10.9063
lfingers 7.12502
lthumb 12.4632 40.5147
rfemur -18.5562 3.80303 16.0961
rtibia 52.9675
rfoot -24.0988 -6.84919
rtoes -17.1564
lfemur -15.5449 4.60518 -14.935
ltibia 46.4579
lfoot -18.1349 -10.9099
ltoes -6.28728
1070
root -0.175497 14.9542 -0.832587 -4.66127 -0.111423 1.63381
lowerback 15.8836 2.37029 -8.9042
upperback 8.05602 1.62301 -13.3554
thorax 0.00549547 0.861514 -9.78554
lowerneck -5.05723 13.3161 -1.71373
upperneck 27.8531 17.3042 7.10112
head 8.71573 8.53588 4.06319
rclavicle 6.20208e-014 6.04305e-014
rhumerus 39.1552 -42.2451 -2.18402
rradius 124.804
rwrist -55.901
rhand -14.84 9.66958
rfingers 7.12502
rthumb 11.3191 -20.005
lclavicle 6.20208e-014 6.04305e-014
lhumerus -23.3869 10.1696 57.5256
lradius 19.0524
lwrist 16.7347
lhand -13.7908 10.3755
lfingers 7.12502
lthumb 12.3308 39.9919
rfemur -18.6104 3.86314 16.1594
rtibia 52.992
rfoot -24.0096 -6.88234
rtoes -17.6076
lfemur -15.5443 4.74701 -14.8691
ltibia 46.4917
lfoot -18.0883 -10.9193
ltoes -6.40394
1071
root -0.178528 14.9525 -0.836807 -4.64785 -0.289463 1.53802
lowerback 15.9026 2.38976 -8.66204
upperback 8.06557 1.6781 -13.3892
thorax 0.0182434 0.897284 -9.97596
lowerneck -4.91491 13.2659 -1.51102
upperneck 27.9213 17.1899 7.15614
head 8.73356 8.50528 4.03907
rclavicle 1.59028e-014 -4.13472e-014
rhumerus 39.7679 -42.0535 -2.24088
rradius 124.399
rwrist -56.404
rhand -14.7353 9.54171
rfingers 7.12502
rthumb 11.42 -20.1273
lclavicle 1.59028e-014 -4.13472e-014
lhumerus -23.2811 9.01568 57.7806
lradius 19.3112
lwrist 17.1041
lhand -13.697 10.4688
lfingers 7.12502
lthumb 12.4213 40.0797
rfemur -18.7057 4.00169 16.3055
rtibia 53.0022
rfoot -23.8974 -6.91742
rtoes -17.7227
lfemur -15.579 4.8852 -14.7209
ltibia 46.5439
lfoot -18.0802 -10.9253
ltoes -6.37916
1072
root -0.179238 14.9536 -0.839294 -4.63364 -0.474929 1.44402
lowerback 15.9111 2.44368 -8.41486
upperback 8.06164 1.77959 -13.4081
thorax 0.0273845 0.956436 -10.1597
lowerneck -4.71271 13.1675 -1.22008
upperneck 27.999 17.0219 7.10317
head 8.76672 8.44645 3.96244
rclavicle 7.95139e-015 1.59028e-014
rhumerus 40.2333 -41.8818 -2.14299
rradius 124.087
rwrist -57.051
rhand -14.5636 9.35609
rfingers 7.12502
rthumb 11.5856 -20.3037
lclavicle 7.95139e-015 1.59028e-014
lhumerus -23.1995 7.89481 58.051
lradius 19.5766
lwrist 17.3671
lhand -13.4441 10.6361
lfingers 7.12502
lthumb 12.6651 40.2321
rfemur -18.7856 4.11306 16.4295
rtibia 53.0134
rfoot -23.8676 -6.8262
rtoes -17.7509
lfemur -15.6045 5.03159 -14.5898
ltibia 46.5906
lfoot -18.1032 -10.8502
ltoes -6.66626
1073
root -0.17976 14.9541 -0.839831 -4.64759 -0.6505 1.43857
lowerback 15.8948 2.44736 -8.35289
upperback 8.10258 1.80074 -13.3966
thorax 0.0843568 0.96814 -10.1842
lowerneck -4.75971 13.1239 -1.19282
upperneck 28.2045 16.9427 7.17307
head 8.84582 8.41352 3.9941
rclavicle -1.90833e-014 -1.30403e-013
rhumerus 40.9389 -41.6865 -2.14445
rradius 123.784
rwrist -57.4812
rhand -14.4909 9.19348
rfingers 7.12502
rthumb 11.6557 -20.4623
lclavicle -1.90833e-014 -1.30403e-013
lhumerus -23.0624 7.59491 58.2135
lradius 19.5205
lwrist 17.1695
lhand -13.1841 10.4531
lfingers 7.12502
lthumb 12.9157 40.0334
rfemur -18.8304 4.22129 16.4534
rtibia 53.0508
rfoot -23.845 -6.76667
rtoes -17.8417
lfemur -15.5652 5.14897 -14.5627
ltibia 46.6215
lfoot -18.13 -10.7665
ltoes -6.74194
1074
root -0.180937 14.952 -0.842745 -4.6615 -0.811577 1.55505
lowerback 15.9266 2.44815 -8.42522
upperback 8.12548 1.78689 -13.4246
thorax 0.0911822 0.959033 -10.175
lowerneck -4.8455 13.1158 -1.22343
upperneck 28.4786 16.9038 7.3252
head 8.94007 8.40082 4.06968
rclavicle -6.04305e-014 6.36111e-014
rhumerus 41.5249 -41.4106 -2.07944
rradius 123.507
rwrist -57.7652
rhand -14.459 9.20684
rfingers 7.12502
rthumb 11.6865 -20.4472
lclavicle -6.04305e-014 6.36111e-014
lhumerus -22.9434 7.55789 58.3045
lradius 19.4391
lwrist 17.0223
lhand -13.0795 10.2541
lfingers 7.12502
lthumb 13.0166 39.828
rfemur -18.899 4.32463 16.3443
rtibia 53.1056
rfoot -23.8101 -6.74096
rtoes -17.951
lfemur -15.5197 5.27253 -14.6673
ltibia 46.6034
lfoot -18.0822 -10.73
ltoes -6.75094
